<svg xmlns="http://www.w3.org/2000/svg" viewBox="0 0 369.88 444.34"><defs><style>.cls-1{fill:#ffe8e8;}</style></defs><title>Recurso 5</title><g id="Capa_2" data-name="Capa 2"><g id="Rsa"><path class="cls-1" d="M75.71,99.86C97,74.65,119.25,49.73,146.53,30.65s60.32-32.06,94-30.52c21.89,1,43.07,8,62.86,17.17,17.61,8.12,34.76,18.23,47,32.9,21.48,25.7,24.69,63.07,12.3,93.86-11.6,28.84-35.18,52.26-45.41,81.58-17.72,50.78,7.4,110.3-16.81,158.52-14.72,29.32-46,48.71-78.82,56.06s-67.35,4-100.36-2.73c-16.11-3.27-32.3-7.42-46.41-15.61C28.19,394.78,8,323.37,1.42,274.5-8.12,204,31.89,151.77,75.71,99.86Z"/></g></g></svg>