<svg xmlns="http://www.w3.org/2000/svg" viewBox="0 0 458.1 269.14"><defs><style>.cls-1{fill:#e8f3f9;}</style></defs><title>Recurso 8</title><g id="Capa_2" data-name="Capa 2"><g id="azul"><path class="cls-1" d="M70.72,1c35.67,5.55,65.93,29.38,84,58.41,5.15,8.26,9.53,17.05,16.34,24.2,24.1,25.31,69.34,20.65,100.42,3.05S326,41.73,356.35,23.05c20.51-12.63,48.32-20.81,69.16-8.64C433.38,19,439.27,26,443.91,33.49c24.06,38.72,15.62,89.62-11,126.84s-68.66,62.68-112.1,82c-38.92,17.33-81.84,30.79-124.66,25.7s-84.84-33.19-92-72.67c-2-11.15-1.28-22.59-2.63-33.83-5.14-43-37.87-71.67-70.42-99.08C16.88,50.56-8.72,36.75,3,17,13,.12,53.64-1.66,70.72,1Z"/></g></g></svg>