<svg xmlns="http://www.w3.org/2000/svg" viewBox="0 0 545.04 379.88"><defs><style>.cls-1{fill:#ffe8e8;}</style></defs><title>Recurso 3</title><g id="Capa_2" data-name="Capa 2"><g id="Rsa"><path class="cls-1" d="M354.54,185.24c0,59.81-24.56,113.31-63.22,149-30.83,28.48-70.61,45.63-114,45.63C79.37,379.88,0,292.74,0,185.24A214.58,214.58,0,0,1,2.58,152c10.35-66,75.66-109,140.18-91.65a358,358,0,0,0,66.49,11c9.83.72,19.9,1.1,30.14,1.1h2.07c62-.31,112.69,49.45,113.08,111.4Q354.54,184.56,354.54,185.24Z"/><path class="cls-1" d="M545,158.59c0,107.5-79.37,194.64-177.27,194.64a163.58,163.58,0,0,1-76.45-19C231.69,302.91,190.5,236,190.5,158.59a212.52,212.52,0,0,1,7-54.34,42.84,42.84,0,0,1,41.58-31.77h.31a387.72,387.72,0,0,0,77.23-7.55c47.51-9.71,85.83-28.12,106.8-51.19,16-17.65,43.64-18.34,60.86-1.84C521.52,47.58,545,100.07,545,158.59Z"/></g></g></svg>