<svg xmlns="http://www.w3.org/2000/svg" viewBox="0 0 640.22 499.56"><defs><style>.cls-1{fill:#f9f5df;}</style></defs><title>Recurso 2</title><g id="Capa_2" data-name="Capa 2"><g id="Amarillo"><path class="cls-1" d="M602,495.22a29.47,29.47,0,0,1-3.15,1.65c-14.42,6.49-31.18.07-45.14-7.34-49.55-26.31-91.06-65.2-136.43-98.2A673.81,673.81,0,0,0,163.92,278.11C108.42,266.13-14.53,246.78,1.41,162c8-42.65,64-68.4,127.75-60.34,3.79.48,7.62,1.08,11.46,1.8q6.47,1.21,12.85,2.87c3.23.84,6.75-.06,10,0s7.77.07,10.39-1.65q5.29-3.46,10.33-7.29a178.07,178.07,0,0,0,23.55-21.49,20.74,20.74,0,0,0,4.52-7.73v0c3.68-11.65,6-24,12.27-34.42,5.27-8.74,13.13-15.72,21.85-21,26.21-15.9,60.35-16.4,88.37-4s49.88,36.84,62.15,64.94c8.31,19,12.57,39.84,22.93,57.83,6.66,11.58,16.48,22.19,29.36,25.75,23.4,6.47,46.4-12.29,59.56-32.69,2.43-3.77,4.82-7.77,8.56-10.24,5.62-3.71,13-3.15,19.59-1.8,20.64,4.25,39.56,14.86,56,28,13.15,10.5,25.15,23,32.47,38.11,12.41,25.69,10.08,55.65,10.35,84.18.36,37.48,5.69,74.87,4.15,112.31a306.64,306.64,0,0,1-17,88.67C618.71,475.92,612.8,488.72,602,495.22Z"/></g></g></svg>