<svg xmlns="http://www.w3.org/2000/svg" viewBox="0 0 524.32 555.7"><defs><style>.cls-1{fill:#f9f5df;}</style></defs><title>Recurso 7</title><g id="Capa_2" data-name="Capa 2"><g id="Amarillo"><path class="cls-1" d="M492.56,125c26.1,51.52,30.85,111,31.66,168.77.53,37.59-.53,76-13,111.42-20.62,58.49-71.31,103.22-128.8,126.51s-121.24,27.07-183,21.93c-26.93-2.24-54.16-6.24-78.76-17.42C98,526,78.56,510.13,59.64,494.12c-15-12.69-30.07-25.87-40.2-42.7C5,427.49,2,398.55.61,370.63c-2.08-42.8,0-88.8,25.18-123.47,16-22,39.51-37,61.9-52.34C144.23,155.94,197.55,110.22,234,52.08,244.27,35.7,257.39,6.56,278,1c14.64-3.93,38.9,4.37,53.59,6.89A228.39,228.39,0,0,1,449,67,212.68,212.68,0,0,1,492.56,125Z"/></g></g></svg>