<svg xmlns="http://www.w3.org/2000/svg" viewBox="0 0 411.19 406.48"><defs><style>.cls-1{fill:#e8f3f9;}</style></defs><title>Recurso1</title><g id="Capa_2" data-name="Capa 2"><g id="azul"><path class="cls-1" d="M2.36,99.21c-5.78-16-.47-34.12,10.63-47.77C19.88,43,27.2,37.15,37.1,31.45A213.89,213.89,0,0,1,68.59,16.69,266.22,266.22,0,0,1,137.95,1.23,304.66,304.66,0,0,1,170.24,0C234.66,1,338,19.35,380.69,67.25c17,19.1,23.75,43.94,26.26,68.21,4.42,42.82,6.07,86.73,1.57,129.57a470.77,470.77,0,0,1-17,86.09c-3.55,11.85-7.87,24-17,33.17-10.52,10.6-26.17,16-41.66,19.22-19.5,4-40.94,4.9-58.65-3.38-16.12-7.54-27.07-21.74-34.33-36.59S228.44,332.8,222,317.67c-15.47-36.1-44.15-67.37-79.8-89.47-20.1-12.46-42.18-22-63.54-32.61a349.5,349.5,0,0,1-31.38-17.24,79.19,79.19,0,0,1-22.72-21C5.15,131.33,9.41,127,2.36,99.21"/></g></g></svg>