<svg id="Layer_1" data-name="Layer 1" xmlns="http://www.w3.org/2000/svg" viewBox="0 0 547.771 410.595"><defs><style>.cls-1{fill:#d06397;}</style></defs><title>sass</title><path class="cls-1" d="M503.6,430.16a112.631,112.631,0,0,0-49.627,11.549c-5.084-10.147-10.229-19.072-11.093-25.709-1.009-7.748-2.179-12.37-.96-21.6s6.559-22.3,6.48-23.28-1.2-5.681-12.24-5.76-20.488,2.124-21.6,5.04A108.951,108.951,0,0,0,410,386.72c-1.935,10.013-22.047,45.723-33.468,64.405-3.734-7.291-6.91-13.721-7.572-18.8-1.009-7.748-2.179-12.37-.96-21.6s6.559-22.3,6.48-23.28-1.2-5.68-12.24-5.76-20.488,2.124-21.6,5.04-2.3,9.728-4.56,16.32-29,66.16-36,81.6c-3.568,7.867-6.673,14.186-8.865,18.5l-0.015-.024s-0.134.287-.367,0.773c-1.877,3.674-2.993,5.707-2.993,5.707l0.033,0.076c-1.488,2.7-3.083,5.2-3.873,5.2-0.552,0-1.658-7.183.24-17.04,3.978-20.664,13.536-52.891,13.44-54-0.049-.569,1.777-6.185-6.24-9.12-7.793-2.852-10.568,1.905-11.28,1.92-0.689.015-1.2,1.681-1.2,1.681s8.682-36.24-16.56-36.24c-15.781,0-37.648,17.264-48.42,32.911-6.8,3.708-21.345,11.649-36.779,20.129-5.928,3.257-11.977,6.585-17.713,9.745-0.39-.432-0.778-0.864-1.18-1.293C127.7,430.918,71.119,407.82,73.52,363.92c0.873-15.96,6.42-57.984,108.72-108.96,83.8-41.758,150.887-30.267,162.48-4.8,16.561,36.383-35.854,104.005-122.881,113.76-33.158,3.717-50.617-9.134-54.96-13.92-4.571-5.039-5.253-5.266-6.96-4.32-2.781,1.54-1.018,5.989,0,8.64,2.6,6.763,13.261,18.754,31.44,24.72,15.992,5.248,54.921,8.13,102-10.08,52.73-20.4,93.9-77.135,81.81-124.56-12.3-48.235-92.276-64.092-167.97-37.2-45.048,16-93.816,41.123-128.88,73.92-41.691,39-48.34,72.938-45.6,87.12,9.734,50.391,79.189,83.206,107,107.526l-3.831,2.114c-13.944,6.9-66.888,34.6-80.131,63.88C40.738,574.967,58.151,598.792,69.68,602c35.719,9.938,72.372-7.938,92.07-37.319S179.039,497.059,170,479.6c-0.112-.217-0.236-0.429-0.352-0.644,3.6-2.131,7.272-4.3,10.912-6.435,7.1-4.167,14.062-8.055,20.109-11.345-3.382,9.269-5.86,20.379-7.149,36.424-1.514,18.85,6.21,43.215,16.32,52.8,4.451,4.22,9.806,4.319,13.2,4.319,11.763,0,17.13-9.786,23.04-21.36,7.248-14.2,13.68-30.72,13.68-30.72s-8.072,44.64,13.92,44.64c8.013,0,16.075-10.391,19.664-15.689l0.015,0.089s0.208-.345.617-1.037c0.832-1.273,1.3-2.082,1.3-2.082s0.016-.084.042-0.23c3.221-5.593,10.365-18.344,21.079-39.37,13.842-27.167,27.119-61.2,27.119-61.2a181.958,181.958,0,0,0,5.28,22.08c2.38,8.1,7.436,17.045,11.425,25.627-3.211,4.455-5.185,7.014-5.185,7.014l0.054,0.133c-2.566,3.406-5.443,7.082-8.453,10.666-10.925,13.013-23.937,27.871-25.681,32.16-2.053,5.053-1.567,8.771,2.4,11.76,2.9,2.185,8.058,2.524,13.44,2.16a61.263,61.263,0,0,0,20.134-4.578,67.747,67.747,0,0,0,17.307-9.1c10.718-7.879,17.182-19.15,16.561-34.08-0.344-8.228-2.968-16.383-6.287-24.082q1.459-2.1,2.926-4.238a457.407,457.407,0,0,0,30-51.84,181.856,181.856,0,0,0,5.281,22.08c2.047,6.965,6.086,14.563,9.718,22.014-15.886,12.908-25.738,27.906-29.159,37.746-6.324,18.2-1.371,26.443,7.921,28.32,4.209,0.851,10.153-1.078,14.625-2.971a67.777,67.777,0,0,0,18.5-9.509c10.718-7.879,21.021-18.911,20.4-33.841a63.515,63.515,0,0,0-4.628-20.023c13.466-5.609,30.9-8.729,53.107-6.136,47.641,5.564,56.986,35.31,55.2,47.76s-11.779,19.294-15.121,21.36-4.359,2.783-4.079,4.32c0.406,2.234,1.951,2.148,4.8,1.668,3.922-.662,25.017-10.127,25.92-33.108C581.066,461.944,553.113,429.9,503.6,430.16Zm-367.21,123.8c-15.78,17.215-37.826,23.721-47.28,18.24-10.208-5.919-6.165-31.263,13.2-49.53,11.8-11.134,27.04-21.388,37.148-27.7,2.3-1.385,5.68-3.417,9.787-5.878,0.681-.389,1.065-0.6,1.065-0.6l-0.015-.025L152.739,487C159.785,513,152.953,535.891,136.39,553.959Zm114.96-78.152c-5.5,13.4-17,47.678-24,45.841-6.01-1.577-9.67-27.635-1.2-53.28,4.263-12.908,13.37-28.334,18.72-34.32,8.613-9.635,18.1-12.785,20.4-8.879C268.206,430.145,254.8,467.407,251.35,475.807Zm94.978,45.318c-2.33,1.219-4.467,1.984-5.459,1.394-0.728-.435.961-2.04,0.961-2.04s11.881-12.78,16.559-18.6c2.722-3.385,5.878-7.4,9.317-11.894,0.027,0.449.043,0.894,0.043,1.334C367.715,506.631,352.924,516.969,346.328,521.125Zm73.168-16.68c-1.738-1.236-1.449-5.234,4.267-17.686a66.787,66.787,0,0,1,16.265-20.986A30.246,30.246,0,0,1,441.67,475C441.555,494.264,427.809,501.459,419.5,504.445Z" transform="translate(-32.183 -194.17)"/></svg>